<svg fill="none" height="16" viewBox="0 0 16 16" width="16" xmlns="http://www.w3.org/2000/svg"><g clip-rule="evenodd" fill-rule="evenodd"><path d="m8 15c3.866 0 7-3.134 7-7 0-3.86599-3.134-7-7-7-3.86599 0-7 3.13401-7 7 0 3.866 3.13401 7 7 7z" stroke="#000" stroke-linecap="round" stroke-linejoin="round" stroke-width="1.5"/><path d="m11.7486 5.3071c.1988.13736.2486.40986.1113.60864l-3.3676 4.87346c-.22174.3198-.56922.5312-.9597.5616-.39109.0304-.76663-.1256-1.03164-.4116l-.00086-.0009-1.73862-1.88729c-.16371-.17771-.15236-.45449.02535-.6182.1777-.16371.45448-.15237.61819.02534l1.73777 1.88635c.00012.0001-.00012-.0001 0 0 .0923.0994.21058.1426.32199.1339.11209-.0087.227-.0704.30833-.1875.00006-.0001-.00006 0 0 0l3.36689-4.87258c.1373-.19878.4098-.24858.6086-.11122z" fill="#000"/></g></svg>