<svg height="30.924" viewBox="0 0 46.387 30.924" width="46.387" xmlns="http://www.w3.org/2000/svg"><g fill="#30458c"><path d="m41.555 85.333h-36.723a4.839 4.839 0 0 0 -4.832 4.832v21.261a4.839 4.839 0 0 0 4.832 4.832h36.723a4.839 4.839 0 0 0 4.832-4.832v-21.261a4.839 4.839 0 0 0 -4.832-4.832zm2.9 26.092a2.9 2.9 0 0 1 -2.9 2.9h-36.723a2.9 2.9 0 0 1 -2.9-2.9v-21.26a2.9 2.9 0 0 1 2.9-2.9h36.723a2.9 2.9 0 0 1 2.9 2.9z" transform="translate(0 -85.333)"/><path d="m45.42 149.333h-44.454a.967.967 0 0 0 -.966.967v5.8a.967.967 0 0 0 .966.966h44.454a.967.967 0 0 0 .966-.966v-5.8a.967.967 0 0 0 -.966-.967zm-.966 5.8h-42.521v-3.866h42.521z" transform="translate(0 -143.535)"/><path d="m76.563 298.667h-11.6a.966.966 0 1 0 0 1.933h11.6a.966.966 0 1 0 0-1.933z" transform="translate(-58.202 -279.339)"/><path d="m76.563 341.333h-11.6a.966.966 0 1 0 0 1.933h11.6a.966.966 0 1 0 0-1.933z" transform="translate(-58.202 -318.14)"/><path d="m367.5 277.333h-1.933a2.9 2.9 0 0 0 -2.9 2.9v1.933a2.9 2.9 0 0 0 2.9 2.9h1.933a2.9 2.9 0 0 0 2.9-2.9v-1.933a2.9 2.9 0 0 0 -2.9-2.9zm.966 4.832a.967.967 0 0 1 -.966.966h-1.933a.967.967 0 0 1 -.966-.966v-1.933a.967.967 0 0 1 .966-.966h1.933a.967.967 0 0 1 .966.966z" transform="translate(-329.81 -259.938)"/></g></svg>