<svg height="36.724" viewBox="0 0 39.952 36.724" width="39.952" xmlns="http://www.w3.org/2000/svg"><g fill="#30458c" stroke="#30458c" stroke-width=".8"><path d="m189.208 157.846a.693.693 0 0 0 -.25-.009 1.655 1.655 0 0 1 -1.464-1.641.728.728 0 1 0 -1.456 0 3.115 3.115 0 0 0 2.29 3v.728a.728.728 0 0 0 1.456 0v-.684a3.109 3.109 0 0 0 -.637-6.152 1.653 1.653 0 1 1 1.653-1.653.728.728 0 1 0 1.456 0 3.115 3.115 0 0 0 -2.472-3.043v-.663a.728.728 0 1 0 -1.456 0v.707a3.109 3.109 0 0 0 .819 6.108 1.652 1.652 0 0 1 .06 3.3zm0 0" transform="translate(-168.739 -142.914)"/><path d="m104.195 117.05a10.558 10.558 0 1 0 10.558-10.558 10.557 10.557 0 0 0 -10.558 10.558zm10.558-9.1a9.1 9.1 0 1 1 -9.1 9.1 9.1 9.1 0 0 1 9.1-9.102zm0 0" transform="translate(-94.345 -106.092)"/><path d="m34.514 329.257-5.7 2.695a4.645 4.645 0 0 0 -3.96-2.444l-5.265-.145a5.561 5.561 0 0 1 -2.393-.618l-.536-.278a9.449 9.449 0 0 0 -8.753.009l.033-1.214a.728.728 0 0 0 -.708-.748l-5.773-.159a.728.728 0 0 0 -.748.708l-.351 12.67a.728.728 0 0 0 .708.748l5.773.159h.02a.728.728 0 0 0 .728-.708l.017-.606 1.5-.8a2.572 2.572 0 0 1 1.92-.21l8.956 2.514.047.012a9.591 9.591 0 0 0 1.968.2 9.715 9.715 0 0 0 4.058-.886.674.674 0 0 0 .09-.05l12.986-8.4a.728.728 0 0 0 .239-.97 3.678 3.678 0 0 0 -4.857-1.48zm-32.678 9.789.309-11.214 4.318.119-.309 11.214zm23.564-.191a8.255 8.255 0 0 1 -5.048.563l-8.932-2.507a4.026 4.026 0 0 0 -3 .328l-.766.411.205-7.456a8 8 0 0 1 8.13-.434l.536.278a7.033 7.033 0 0 0 3.022.781l5.265.145a3.193 3.193 0 0 1 3.035 2.545l-7.847-.217a.728.728 0 0 0 -.04 1.456l8.655.238h.02a.728.728 0 0 0 .727-.708 4.621 4.621 0 0 0 -.07-.945l5.85-2.764.017-.008a2.225 2.225 0 0 1 2.515.352zm0 0" transform="translate(.041 -304.717)"/></g></svg>