<svg height="35.784" viewBox="0 0 35.784 35.784" width="35.784" xmlns="http://www.w3.org/2000/svg"><path d="m30.543 5.24a17.892 17.892 0 1 0 -25.3 25.3 17.892 17.892 0 1 0 25.3-25.3zm3.087 11.525h-5.87a9.953 9.953 0 0 0 -5.279-7.68l1.943-5.555a15.81 15.81 0 0 1 9.206 13.235zm-15.738 8.946a7.819 7.819 0 1 1 7.819-7.819 7.828 7.828 0 0 1 -7.819 7.819zm4.555-22.927-1.935 5.527a9.942 9.942 0 0 0 -5.507.077l-2.411-5.359a15.784 15.784 0 0 1 9.853-.245zm-11.791 1.089 2.4 5.344a9.951 9.951 0 0 0 -5.037 7.548h-5.865a15.8 15.8 0 0 1 8.5-12.892zm-8.511 15.005h5.864a9.881 9.881 0 0 0 2 5.053l-4.151 4.154a15.708 15.708 0 0 1 -3.713-9.207zm5.184 10.722 4.141-4.141a9.912 9.912 0 0 0 12.551.24l4.241 4.072a15.748 15.748 0 0 1 -20.933-.171zm22.429-1.32-4.222-4.053a9.889 9.889 0 0 0 2.24-5.349h5.864a15.713 15.713 0 0 1 -3.881 9.4z" fill="#30458c"/></svg>