<svg height="36.528" viewBox="0 0 50.85 36.528" width="50.85" xmlns="http://www.w3.org/2000/svg"><g fill="#30458c" stroke="#30458c" stroke-width=".3"><path d="m73.322 337.067a5.055 5.055 0 1 0 5.055 5.055 5.06 5.06 0 0 0 -5.055-5.055zm0 8.425a3.37 3.37 0 1 1 3.37-3.37 3.373 3.373 0 0 1 -3.37 3.37z" transform="translate(-61.377 -310.799)"/><path d="m363.455 337.067a5.055 5.055 0 1 0 5.055 5.055 5.06 5.06 0 0 0 -5.055-5.055zm0 8.425a3.37 3.37 0 1 1 3.37-3.37 3.373 3.373 0 0 1 -3.37 3.37z" transform="translate(-322.865 -310.799)"/><path d="m342.668 178.582-7.582-11.8a.843.843 0 0 0 -.709-.387h-9.268a.842.842 0 0 0 -.842.842v21.063a.842.842 0 0 0 .842.842h3.37v-1.685h-2.528v-19.372h7.965l7.2 11.2v8.177h-4.216v1.685h5.055a.842.842 0 0 0 .842-.842v-9.268a.84.84 0 0 0 -.129-.455z" transform="translate(-292.102 -156.982)"/><path d="m360.086 208.116v-5.9h6.74v-1.685h-7.583a.842.842 0 0 0 -.842.842v7.583a.842.842 0 0 0 .842.842h12.638v-1.685h-11.8z" transform="translate(-322.865 -187.745)"/><path d="m32.858 106.667h-32.016a.843.843 0 0 0 -.842.842v26.96a.842.842 0 0 0 .842.842h6.74v-1.685h-5.9v-25.274h30.33v25.275h-16.004v1.685h16.85a.842.842 0 0 0 .842-.842v-26.96a.842.842 0 0 0 -.842-.843z" transform="translate(.15 -103.147)"/><path d="m0 0h5.055v1.685h-5.055z" transform="translate(.992 27.11)"/><path d="m0 0h14.323v1.685h-14.323z" transform="translate(17.843 27.11)"/><path d="m0 0h3.37v1.685h-3.37z" transform="translate(46.488 27.11)"/><path d="m0 0h29.488v1.685h-29.488z" transform="translate(3.52 6.89)"/><path d="m0 0h1.685v1.685h-1.685z" transform="translate(11.103 30.48)"/><path d="m0 0h1.685v1.685h-1.685z" transform="translate(39.748 30.48)"/><path d="m0 0h11.795v1.685h-11.795z" transform="translate(3.52 .15)"/><path d="m0 0h1.685v1.685h-1.685z" transform="translate(.15 .15)"/></g></svg>