<svg fill="none" height="32" viewBox="0 0 34 32" width="34" xmlns="http://www.w3.org/2000/svg"><path d="m33.05 16c0 8.5474-7.1278 15.5-15.9498 15.5s-15.94981-6.9526-15.94981-15.5c0-8.54744 7.12781-15.5 15.94981-15.5s15.9498 6.95256 15.9498 15.5z" fill="#fff" stroke="#dfe0e6"/><path d="m17.9324 16 4.2169-4.8891c.0707-.0812.0113-.2047-.098-.2047h-1.2819c-.0755 0-.1478.0329-.1976.0891l-3.4779 4.0328-3.4779-4.0328c-.0482-.0562-.1205-.0891-.1976-.0891h-1.2819c-.1093 0-.1687.1235-.098.2047l4.2168 4.8891-4.2168 4.8891c-.0159.0181-.026.0402-.0293.0638-.0033.0235.0005.0475.0108.0691.0103.0215.0268.0397.0474.0525.0206.0127.0446.0194.0691.0193h1.2819c.0755 0 .1478-.0329.1976-.0891l3.4779-4.0328 3.4779 4.0328c.0482.0562.1205.0891.1976.0891h1.2819c.1093 0 .1687-.1235.098-.2047z" fill="#3c3e49"/></svg>