<svg height="69.681" viewBox="0 0 235.11 69.681" width="235.11" xmlns="http://www.w3.org/2000/svg"><path d="m1237.429 315.682a6.674 6.674 0 0 1 -6.681 6.674h-218.631a6.682 6.682 0 0 1 -6.689-6.674v-53.221a6.691 6.691 0 0 1 6.689-6.683h218.629a6.681 6.681 0 0 1 6.681 6.683v53.221z" fill="#fff" transform="translate(-1003.877 -254.227)"/><path d="m1226.826 319.987h-218.626a8.243 8.243 0 0 1 -8.24-8.226v-53.22a8.248 8.248 0 0 1 8.24-8.235h218.629a8.251 8.251 0 0 1 8.24 8.235v53.22a8.241 8.241 0 0 1 -8.239 8.226z" fill="#a6a6a6" transform="translate(-999.955 -250.306)"/><path d="m1237.429 315.682a6.674 6.674 0 0 1 -6.681 6.674h-218.631a6.682 6.682 0 0 1 -6.689-6.674v-53.221a6.691 6.691 0 0 1 6.689-6.683h218.629a6.681 6.681 0 0 1 6.681 6.683v53.221z" transform="translate(-1003.877 -254.227)"/><g fill="#fff"><path d="m1108.822 339.293a10.1 10.1 0 0 1 4.811-8.476 10.345 10.345 0 0 0 -8.148-4.405c-3.427-.361-6.752 2.051-8.5 2.051-1.781 0-4.469-2.016-7.367-1.957a10.848 10.848 0 0 0 -9.131 5.569c-3.948 6.836-1 16.881 2.779 22.407 1.892 2.708 4.1 5.728 7 5.621 2.832-.115 3.889-1.8 7.306-1.8 3.386 0 4.379 1.8 7.331 1.735 3.039-.047 4.952-2.718 6.778-5.449a22.341 22.341 0 0 0 3.1-6.313 9.772 9.772 0 0 1 -5.959-8.983z" transform="translate(-1056.324 -304.819)"/><path d="m1148.7 295.659a9.941 9.941 0 0 0 2.276-7.125 10.13 10.13 0 0 0 -6.548 3.387 9.463 9.463 0 0 0 -2.335 6.862 8.365 8.365 0 0 0 6.607-3.124z" transform="translate(-1101.775 -277.701)"/><path d="m1280.437 385.383h-3.957l-2.168-6.812h-7.534l-2.065 6.812h-3.853l7.467-23.189h4.611zm-6.778-9.669-1.96-6.055q-.311-.928-1.169-4.369h-.07q-.345 1.479-1.1 4.369l-1.927 6.055z" transform="translate(-1186.925 -330.488)"/><path d="m1356.86 392.3a9.469 9.469 0 0 1 -2.318 6.742 6.8 6.8 0 0 1 -5.154 2.2 5.159 5.159 0 0 1 -4.774-2.372v8.774h-3.714v-18.001q0-2.679-.138-5.5h3.267l.207 2.65h.07a6.609 6.609 0 0 1 10.579-.657 9.246 9.246 0 0 1 1.975 6.164zm-3.785.136a6.893 6.893 0 0 0 -1.1-4.027 3.807 3.807 0 0 0 -3.234-1.65 3.863 3.863 0 0 0 -2.493.911 4.225 4.225 0 0 0 -1.462 2.392 4.849 4.849 0 0 0 -.173 1.131v2.79a4.473 4.473 0 0 0 1.119 3.081 3.713 3.713 0 0 0 2.906 1.257 3.807 3.807 0 0 0 3.267-1.617 7.118 7.118 0 0 0 1.17-4.266z" transform="translate(-1244.184 -345.973)"/><path d="m1424.724 392.3a9.47 9.47 0 0 1 -2.317 6.742 6.8 6.8 0 0 1 -5.156 2.2 5.159 5.159 0 0 1 -4.775-2.372v8.774h-3.715v-18.001q0-2.679-.137-5.5h3.267l.207 2.65h.07a6.611 6.611 0 0 1 10.581-.657 9.256 9.256 0 0 1 1.975 6.164zm-3.786.136a6.894 6.894 0 0 0 -1.1-4.027 3.8 3.8 0 0 0 -3.231-1.65 3.879 3.879 0 0 0 -2.5.911 4.223 4.223 0 0 0 -1.46 2.392 4.964 4.964 0 0 0 -.174 1.131v2.79a4.488 4.488 0 0 0 1.117 3.081 3.721 3.721 0 0 0 2.91 1.257 3.8 3.8 0 0 0 3.267-1.617 7.116 7.116 0 0 0 1.17-4.266z" transform="translate(-1292.815 -345.973)"/><path d="m1504.948 378.011a6.2 6.2 0 0 1 -2.061 4.818 9.136 9.136 0 0 1 -6.317 2.03 11.026 11.026 0 0 1 -6-1.444l.859-3.1a10.336 10.336 0 0 0 5.367 1.446 5.062 5.062 0 0 0 3.267-.946 3.091 3.091 0 0 0 1.173-2.527 3.238 3.238 0 0 0 -.965-2.375 8.949 8.949 0 0 0 -3.2-1.788q-6.09-2.271-6.092-6.642a5.865 5.865 0 0 1 2.15-4.679 8.5 8.5 0 0 1 5.694-1.824 11.253 11.253 0 0 1 5.264 1.1l-.932 3.029a9.2 9.2 0 0 0 -4.456-1.066 4.53 4.53 0 0 0 -3.074.964 2.757 2.757 0 0 0 -.932 2.1 2.839 2.839 0 0 0 1.068 2.27 12.032 12.032 0 0 0 3.37 1.788 11.424 11.424 0 0 1 4.4 2.819 5.876 5.876 0 0 1 1.417 4.027z" transform="translate(-1351.537 -329.62)"/><path d="m1559.023 377.263h-4.095v8.118q0 3.1 2.168 3.095a6.526 6.526 0 0 0 1.65-.173l.1 2.821a8.42 8.42 0 0 1 -2.889.411 4.453 4.453 0 0 1 -3.441-1.343q-1.237-1.344-1.239-4.508v-8.428h-2.44v-2.788h2.44v-3.062l3.649-1.1v4.163h4.095z" transform="translate(-1393.298 -336.3)"/><path d="m1608.427 392.383a9.172 9.172 0 0 1 -2.2 6.33 7.85 7.85 0 0 1 -6.123 2.546 7.485 7.485 0 0 1 -5.867-2.44 8.9 8.9 0 0 1 -2.185-6.158 9.1 9.1 0 0 1 2.253-6.364 7.811 7.811 0 0 1 6.074-2.478 7.641 7.641 0 0 1 5.916 2.443 8.778 8.778 0 0 1 2.132 6.121zm-3.851.085a7.486 7.486 0 0 0 -.995-3.945 3.678 3.678 0 0 0 -3.339-1.992 3.73 3.73 0 0 0 -3.406 1.992 7.61 7.61 0 0 0 -1 4.015 7.466 7.466 0 0 0 1 3.947 3.81 3.81 0 0 0 6.714-.033 7.517 7.517 0 0 0 1.026-3.984z" transform="translate(-1424.262 -345.986)"/><path d="m1669.844 387.414a6.458 6.458 0 0 0 -1.171-.1 3.506 3.506 0 0 0 -3.028 1.481 5.577 5.577 0 0 0 -.927 3.3v8.774h-3.718v-11.456q0-2.888-.108-5.264h3.236l.136 3.2h.1a5.734 5.734 0 0 1 1.858-2.65 4.491 4.491 0 0 1 2.685-.9 5.957 5.957 0 0 1 .929.068v3.544z" transform="translate(-1473.598 -345.973)"/><path d="m1713.528 391.651a8.72 8.72 0 0 1 -.136 1.685h-11.145a4.85 4.85 0 0 0 1.617 3.788 5.528 5.528 0 0 0 3.645 1.168 12.321 12.321 0 0 0 4.51-.79l.582 2.577a13.942 13.942 0 0 1 -5.606 1.033 8.127 8.127 0 0 1 -6.109-2.286 8.453 8.453 0 0 1 -2.218-6.141 9.577 9.577 0 0 1 2.067-6.294 7.119 7.119 0 0 1 5.846-2.682 6.231 6.231 0 0 1 5.473 2.682 9.025 9.025 0 0 1 1.474 5.26zm-3.542-.964a5.028 5.028 0 0 0 -.721-2.856 3.244 3.244 0 0 0 -2.959-1.551 3.521 3.521 0 0 0 -2.957 1.514 5.55 5.55 0 0 0 -1.1 2.889h7.737z" transform="translate(-1500.668 -345.907)"/><path d="m1275.367 304.083h-1.946l-1.065-3.348h-3.7l-1.016 3.348h-1.894l3.67-11.4h2.265zm-3.332-4.752-.964-2.976c-.1-.3-.288-1.014-.575-2.147h-.035c-.119.49-.287 1.2-.542 2.147l-.946 2.976z" transform="translate(-1190.425 -280.676)"/><path d="m1312.11 303.907-3.11 8.218h-1.776l-3.011-8.218h1.962l1.4 4.346c.237.727.439 1.42.591 2.079h.05c.136-.591.338-1.284.591-2.079l1.387-4.346z" transform="translate(-1217.992 -288.718)"/><path d="m1342.548 311.7-.136-.946h-.05a2.8 2.8 0 0 1 -2.4 1.133 2.392 2.392 0 0 1 -2.52-2.419c0-2.028 1.758-3.077 4.8-3.077v-.152c0-1.082-.575-1.624-1.708-1.624a3.836 3.836 0 0 0 -2.147.61l-.371-1.2a5.262 5.262 0 0 1 2.825-.711c2.147 0 3.231 1.133 3.231 3.4v3.027a12.226 12.226 0 0 0 .118 1.962h-1.643zm-.255-4.093c-2.03 0-3.044.491-3.044 1.657a1.164 1.164 0 0 0 1.251 1.284 1.748 1.748 0 0 0 1.793-1.673z" transform="translate(-1241.805 -288.29)"/><path d="m1372.46 293.612a1.092 1.092 0 1 1 1.15-1.1 1.073 1.073 0 0 1 -1.15 1.1zm.948 9.572h-1.826v-8.218h1.826z" transform="translate(-1266.125 -279.777)"/><path d="m1391.817 302.589h-1.826v-11.989h1.826z" transform="translate(-1279.464 -279.182)"/><path d="m1410.907 311.693-.136-.946h-.051a2.8 2.8 0 0 1 -2.4 1.133 2.392 2.392 0 0 1 -2.52-2.419c0-2.028 1.758-3.077 4.8-3.077v-.152c0-1.082-.575-1.624-1.708-1.624a3.837 3.837 0 0 0 -2.147.61l-.373-1.2a5.262 5.262 0 0 1 2.825-.711c2.147 0 3.23 1.133 3.23 3.4v3.027a12.659 12.659 0 0 0 .117 1.962zm-.255-4.093c-2.03 0-3.044.491-3.044 1.657a1.164 1.164 0 0 0 1.251 1.284 1.747 1.747 0 0 0 1.793-1.673z" transform="translate(-1290.793 -288.286)"/><path d="m1444.479 302.775a2.789 2.789 0 0 1 -2.584-1.455h-.037l-.1 1.269h-1.558c.05-.659.068-1.4.068-2.215v-9.774h1.828v4.973h.035a2.819 2.819 0 0 1 2.621-1.37c1.98 0 3.367 1.692 3.367 4.159-.003 2.552-1.543 4.413-3.64 4.413zm-.371-7.137a2.1 2.1 0 0 0 -2.013 2.182v1.438a2.013 2.013 0 0 0 1.981 2.063c1.368 0 2.181-1.115 2.181-2.891 0-1.658-.847-2.792-2.149-2.792z" transform="translate(-1315.443 -279.182)"/><path d="m1479.495 302.589h-1.825v-11.989h1.825z" transform="translate(-1342.297 -279.182)"/><path d="m1500.871 307.983h-5.482a2.358 2.358 0 0 0 2.587 2.434 6.163 6.163 0 0 0 2.215-.389l.284 1.268a6.85 6.85 0 0 1 -2.755.507 3.815 3.815 0 0 1 -4.093-4.142c0-2.52 1.558-4.414 3.888-4.414 2.1 0 3.417 1.556 3.417 3.907a3.434 3.434 0 0 1 -.061.829zm-1.674-1.3c0-1.269-.643-2.164-1.81-2.164a2.169 2.169 0 0 0 -2 2.164z" transform="translate(-1353.732 -288.247)"/><path d="m1548.24 311.883a3.911 3.911 0 0 1 -3.957-4.227 4 4 0 0 1 4.1-4.346 3.881 3.881 0 0 1 3.957 4.212 4.027 4.027 0 0 1 -4.1 4.361zm.07-7.238c-1.319 0-2.164 1.234-2.164 2.959 0 1.692.863 2.926 2.146 2.926s2.145-1.319 2.145-2.96c.002-1.67-.843-2.925-2.127-2.925z" transform="translate(-1390.033 -288.29)"/><path d="m1589.13 311.693h-1.824v-4.719c0-1.453-.558-2.181-1.657-2.181a1.9 1.9 0 0 0 -1.828 2.013v4.888h-1.821v-5.869c0-.727-.019-1.506-.068-2.351h1.606l.086 1.268h.05a2.949 2.949 0 0 1 2.6-1.438c1.723 0 2.856 1.319 2.856 3.466z" transform="translate(-1417.01 -288.286)"/><path d="m1636.864 300.1h-2.009v3.99q0 1.524 1.063 1.523a3.6 3.6 0 0 0 .812-.086l.05 1.387a4.066 4.066 0 0 1 -1.418.2c-1.439 0-2.3-.795-2.3-2.875v-4.139h-1.2v-1.37h1.2v-1.506l1.791-.542v2.046h2.009z" transform="translate(-1452.796 -283.54)"/><path d="m1665.584 302.589h-1.828v-4.689c0-1.471-.558-2.215-1.657-2.215a1.789 1.789 0 0 0 -1.824 1.945v4.954h-1.828v-11.984h1.828v4.937h.035a2.766 2.766 0 0 1 2.469-1.337c1.741 0 2.805 1.352 2.805 3.5z" transform="translate(-1471.846 -279.182)"/><path d="m1698.244 307.983h-5.48a2.356 2.356 0 0 0 2.586 2.434 6.156 6.156 0 0 0 2.215-.389l.286 1.268a6.858 6.858 0 0 1 -2.757.507 3.815 3.815 0 0 1 -4.093-4.142c0-2.52 1.558-4.414 3.888-4.414 2.1 0 3.417 1.556 3.417 3.907a3.531 3.531 0 0 1 -.062.829zm-1.674-1.3c0-1.269-.641-2.164-1.809-2.164a2.167 2.167 0 0 0 -2 2.164z" transform="translate(-1495.174 -288.247)"/></g></svg>