<svg height="68.852" viewBox="0 0 235.11 68.852" width="235.11" xmlns="http://www.w3.org/2000/svg" xmlns:xlink="http://www.w3.org/1999/xlink"><linearGradient id="a" gradientUnits="objectBoundingBox" x1="1.004" x2="-.291" y1="-5.824" y2="-5.149"><stop offset="0" stop-color="#00a0ff"/><stop offset=".007" stop-color="#00a1ff"/><stop offset=".26" stop-color="#00beff"/><stop offset=".512" stop-color="#00d2ff"/><stop offset=".76" stop-color="#00dfff"/><stop offset="1" stop-color="#00e3ff"/></linearGradient><linearGradient id="b" gradientUnits="objectBoundingBox" x1="1.186" x2="-1.189" y1="-16.699" y2="-16.699"><stop offset="0" stop-color="#ffe000"/><stop offset=".409" stop-color="#ffbd00"/><stop offset=".775" stop-color="#ffa500"/><stop offset="1" stop-color="#ff9c00"/></linearGradient><linearGradient id="c" gradientUnits="objectBoundingBox" x1=".432" x2="-.928" y1="-11.914" y2="-10.128"><stop offset="0" stop-color="#ff3a44"/><stop offset="1" stop-color="#c31162"/></linearGradient><linearGradient id="d" gradientUnits="objectBoundingBox" x1="-.616" x2="-.008" y1="-11.344" y2="-10.547"><stop offset="0" stop-color="#32a071"/><stop offset=".068" stop-color="#2da771"/><stop offset=".476" stop-color="#15cf74"/><stop offset=".801" stop-color="#06e775"/><stop offset="1" stop-color="#00f076"/></linearGradient><path d="m1226.36 588.922h-217.694a8.686 8.686 0 0 1 -8.708-8.606v-51.64a8.686 8.686 0 0 1 8.708-8.606h217.694a8.686 8.686 0 0 1 8.708 8.606v51.639a8.686 8.686 0 0 1 -8.708 8.607z" transform="translate(-999.958 -520.07)"/><path d="m1226.36 521.449a7.279 7.279 0 0 1 7.312 7.227v51.639a7.279 7.279 0 0 1 -7.312 7.227h-217.694a7.279 7.279 0 0 1 -7.312-7.227v-51.639a7.279 7.279 0 0 1 7.313-7.227zm0-1.379h-217.694a8.686 8.686 0 0 0 -8.708 8.606v51.639a8.686 8.686 0 0 0 8.708 8.606h217.694a8.686 8.686 0 0 0 8.708-8.606v-51.639a8.686 8.686 0 0 0 -8.708-8.606z" fill="#a6a6a6" transform="translate(-999.958 -520.07)"/><g fill="#fff"><g stroke="#fff" stroke-miterlimit="10" stroke-width=".16"><path d="m1264.661 567.586a4.668 4.668 0 0 1 -1.293 3.447 5.122 5.122 0 0 1 -3.845 1.53 5.314 5.314 0 0 1 -3.842-1.547 5.462 5.462 0 0 1 0-7.69 5.287 5.287 0 0 1 3.842-1.555 5.527 5.527 0 0 1 2.144.437 4.249 4.249 0 0 1 1.633 1.151l-.91.908a3.568 3.568 0 0 0 -2.867-1.218 4.014 4.014 0 0 0 -2.856 1.143 4.3 4.3 0 0 0 0 5.96 4.051 4.051 0 0 0 2.856 1.142 4 4 0 0 0 2.917-1.151 3.221 3.221 0 0 0 .875-2.093h-3.792v-1.25h5.059a3.489 3.489 0 0 1 .079.786z" transform="translate(-1182.08 -549.953)"/><path d="m1304.276 563.872h-4.752v3.27h4.284v1.244h-4.284v3.271h4.752v1.267h-6.1v-10.324h6.1z" transform="translate(-1213.669 -550.552)"/><path d="m1328.911 572.924h-1.345v-9.052h-2.915v-1.272h7.177v1.267h-2.917z" transform="translate(-1232.64 -550.552)"/><path d="m1368.309 572.924v-10.324h1.343v10.319z" transform="translate(-1263.927 -550.552)"/><path d="m1383.285 572.924h-1.334v-9.052h-2.926v-1.272h7.186v1.267h-2.926z" transform="translate(-1271.606 -550.552)"/><path d="m1429.065 571a5.474 5.474 0 0 1 -7.663 0 5.539 5.539 0 0 1 0-7.664 5.453 5.453 0 0 1 7.654.009 5.518 5.518 0 0 1 .009 7.655zm-6.668-.865a4.049 4.049 0 0 0 5.673 0 4.362 4.362 0 0 0 0-5.934 4.049 4.049 0 0 0 -5.673 0 4.362 4.362 0 0 0 0 5.934z" transform="translate(-1300.871 -549.953)"/><path d="m1464.427 572.924v-10.324h1.633l5.077 8.026h.059l-.059-1.984v-6.042h1.343v10.319h-1.4l-5.316-8.421h-.059l.059 1.992v6.429z" transform="translate(-1332.807 -550.552)"/></g><path d="m1299.365 631.714a7.322 7.322 0 1 0 7.441 7.322 7.26 7.26 0 0 0 -7.441-7.322zm0 11.758a4.445 4.445 0 1 1 4.184-4.437 4.254 4.254 0 0 1 -4.184 4.437zm-16.216-11.758a7.322 7.322 0 1 0 7.432 7.322 7.255 7.255 0 0 0 -7.432-7.322zm0 11.758a4.446 4.446 0 1 1 4.176-4.437 4.26 4.26 0 0 1 -4.176 4.437zm-19.3-9.514v3.111h7.517a6.424 6.424 0 0 1 -1.709 3.907 7.768 7.768 0 0 1 -5.808 2.27 8.262 8.262 0 0 1 0-16.525 8.022 8.022 0 0 1 5.664 2.218l2.218-2.193a11.035 11.035 0 0 0 -7.883-3.135 11.375 11.375 0 1 0 0 22.742 10.581 10.581 0 0 0 8.029-3.193 10.19 10.19 0 0 0 2.721-7.262 10.3 10.3 0 0 0 -.17-1.943zm78.906 2.412a6.863 6.863 0 0 0 -6.344-4.656 7 7 0 0 0 -6.981 7.322 7.2 7.2 0 0 0 7.347 7.32 7.364 7.364 0 0 0 6.174-3.245l-2.525-1.663a4.245 4.245 0 0 1 -3.649 2.025 3.771 3.771 0 0 1 -3.588-2.218l9.907-4.052zm-10.1 2.438a4.038 4.038 0 0 1 3.869-4.269 2.883 2.883 0 0 1 2.756 1.553zm-8.052 7.1h3.257v-21.514h-3.26zm-5.333-12.565h-.109a5.16 5.16 0 0 0 -3.895-1.631 7.324 7.324 0 0 0 0 14.641 5.084 5.084 0 0 0 3.895-1.663h.109v1.05c0 2.8-1.513 4.3-3.953 4.3a4.109 4.109 0 0 1 -3.734-2.614l-2.832 1.168a7.066 7.066 0 0 0 6.566 4.329c3.818 0 7.04-2.221 7.04-7.623v-13.141h-3.087zm-3.725 10.128a4.45 4.45 0 0 1 0-8.875c2.212 0 3.955 1.883 3.955 4.462a4.113 4.113 0 0 1 -3.953 4.414zm42.459-19.078h-7.789v21.517h3.248v-8.152h4.541c3.607 0 7.145-2.58 7.145-6.683s-3.549-6.681-7.144-6.681zm.085 10.371h-4.626v-7.378h4.626a3.691 3.691 0 1 1 0 7.378zm20.078-3.092a6.1 6.1 0 0 0 -5.791 3.294l2.882 1.194a3.084 3.084 0 0 1 2.967-1.582c1.685 0 3.394 1 3.42 2.767v.226a7.2 7.2 0 0 0 -3.394-.833c-3.1 0-6.267 1.689-6.267 4.841 0 2.883 2.543 4.74 5.4 4.74a4.61 4.61 0 0 0 4.149-2.109h.111v1.663h3.137v-8.254c.003-3.812-2.881-5.946-6.613-5.946zm-.392 11.791c-1.062 0-2.542-.521-2.542-1.823 0-1.665 1.846-2.3 3.444-2.3a5.882 5.882 0 0 1 2.969.723 3.927 3.927 0 0 1 -3.87 3.401zm18.436-11.32-3.733 9.327h-.111l-3.86-9.327h-3.5l5.8 13.034-3.309 7.253h3.394l8.937-20.288zm-29.278 13.766h3.257v-21.515h-3.257z" transform="translate(-1180.705 -594.271)"/></g><path d="m1062.047 565.547a3.4 3.4 0 0 0 -.808 2.421v38.066a3.4 3.4 0 0 0 .808 2.421l.126.116 21.582-21.322v-.5l-21.582-21.322z" fill="url(#a)" transform="translate(-1043.873 -552.57)"/><path d="m1147.881 630.3-7.186-7.111v-.5l7.195-7.111.161.093 8.521 4.792c2.432 1.36 2.432 3.6 0 4.966l-8.521 4.783z" fill="url(#b)" transform="translate(-1100.813 -588.509)"/><path d="m1093.153 648.824-7.356-7.27-21.708 21.458c.808.839 2.125.94 3.622.1l25.442-14.289" fill="url(#c)" transform="translate(-1045.916 -607.128)"/><path d="m1093.153 578.313-25.442-14.289c-1.5-.831-2.815-.729-3.622.11l21.708 21.449z" fill="url(#d)" transform="translate(-1045.916 -551.157)"/></svg>