<svg height="13.891" width="19.766" xmlns="http://www.w3.org/2000/svg"><path d="m.694 100.194v-8.409a.846.846 0 0 1 .846-.846h8.405a.846.846 0 0 1 .846.846v8.409a.282.282 0 0 1 -.282.282h-9.533a.282.282 0 0 1 -.282-.282zm6.788 2.881a1.755 1.755 0 1 1 -1.755-1.755 1.755 1.755 0 0 1 1.754 1.755zm-.878 0a.878.878 0 1 0 -.877.877.877.877 0 0 0 .873-.877zm-2.389-1.755h-3.933a.282.282 0 0 0 -.282.28v.856a.282.282 0 0 0 .282.282h3.152a2.315 2.315 0 0 1 .781-1.418zm12.449 1.755a1.755 1.755 0 1 1 -1.755-1.755 1.755 1.755 0 0 1 1.754 1.755zm-.877 0a.878.878 0 1 0 -.878.877.877.877 0 0 0 .877-.877zm3.98-1.473v.856a.282.282 0 0 1 -.282.282h-2.285a2.316 2.316 0 0 0 -4.584 0h-4.6a2.315 2.315 0 0 0 -.78-1.42h4.364v-8.067a.564.564 0 0 1 .564-.564h2.663a2.256 2.256 0 0 1 1.87.994l1.717 2.542a2.256 2.256 0 0 1 .386 1.263v3.833h.686a.282.282 0 0 1 .28.279zm-2.867-5.312-1.373-1.95a.282.282 0 0 0 -.231-.12h-2.136a.282.282 0 0 0 -.282.282v1.95a.282.282 0 0 0 .282.282h3.514a.282.282 0 0 0 .226-.444z" fill="#324688" transform="translate(0 -90.939)"/></svg>