<svg height="15.078" width="15.936" xmlns="http://www.w3.org/2000/svg"><g fill="#324688"><circle cx="6.941" cy="1.365" r="1.365"/><path d="m31.219 217.79a2.068 2.068 0 1 0 2.069 2.068 2.071 2.071 0 0 0 -2.069-2.068zm0 2.658a.589.589 0 1 1 .589-.589.59.59 0 0 1 -.589.589z" transform="translate(-26.79 -206.849)"/><path d="m15.669 73.572a3.07 3.07 0 0 0 -2.294-1.031h-.105a3.732 3.732 0 0 0 -2.007-2.205l-.121-.375h.333a.866.866 0 0 0 .794.519h.416a.216.216 0 0 0 .216-.216v-1.3a.216.216 0 0 0 -.216-.216h-.416a.867.867 0 0 0 -.794.519h-.552a.618.618 0 0 0 -.568-.927l-2.137.114-1.2-1.609 1 .8.052-.59a.922.922 0 0 0 -.838-1l-1.632-.143a.922.922 0 0 0 -1 .838l-.274 3.127a1.593 1.593 0 0 0 .546 1.345.748.748 0 0 0 .086.111h-2.6a.465.465 0 0 0 -.458.467v1.2a3.506 3.506 0 0 0 -1.145 2.225.346.346 0 0 0 .343.382h.649a2.5 2.5 0 0 1 5 0h.012a.328.328 0 0 0 .328.328h3.455c.3.018.458-.147.458-.382a2.33 2.33 0 0 1 2.373-2.319 2.376 2.376 0 0 1 1.775.8.347.347 0 0 0 .519-.46zm-7.926 1.67a3.489 3.489 0 0 0 -.319-1.142 3.527 3.527 0 0 0 -.93-1.2v-1.233l1.553.132-.039 3.109a.738.738 0 0 0 .075.333h-.34zm2.588 0h-.913a.739.739 0 0 0 .075-.314l.048-3.8a.742.742 0 0 0 -.676-.749l-1.138-.041a.817.817 0 0 1 -.8-.511l-.9-2.245 1.4 1.875a.619.619 0 0 0 .529.248l2.34-.125.2.608.973 3.021a3.065 3.065 0 0 0 -1.138 2.033z" transform="translate(.18 -62.598)"/><path d="m212.886 217.79a2.068 2.068 0 1 0 2.069 2.068 2.071 2.071 0 0 0 -2.069-2.068zm0 2.658a.589.589 0 1 1 .589-.589.59.59 0 0 1 -.589.589z" transform="translate(-199.331 -206.849)"/><path d="m1.739 51.069h3.261v-3.75h-4v4.695h.739z" transform="translate(-1 -42.608)"/></g></svg>