<svg fill="none" height="24" viewBox="0 0 24 24" width="24" xmlns="http://www.w3.org/2000/svg"><g stroke="#000" stroke-linecap="round" stroke-linejoin="round" stroke-width="1.5"><path d="m6 19.125h9.921c.7316.0001 1.3566-.5277 1.479-1.249l2.637-15.50001c.1229-.72091.7477-1.24816 1.479-1.248h.984"/><path d="m7.875 21.375c.20711 0 .375.1679.375.375s-.16789.375-.375.375-.375-.1679-.375-.375.16789-.375.375-.375"/><path d="m15.375 21.375c.2071 0 .375.1679.375.375s-.1679.375-.375.375-.375-.1679-.375-.375.1679-.375.375-.375"/><path d="m17.9531 14.625h-12.07104c-1.37633-.0002-2.57601-.9368-2.91-2.272l-1.45-5.80003c-.05607-.22413-.0057-.4616.13652-.64368.14223-.18208.36044-.28845.59148-.28832h17.23404"/></g></svg>