<svg xmlns="http://www.w3.org/2000/svg" width="25.124" height="22.352" viewBox="0 0 25.124 22.352">
    <path fill="#8b8f95" d="M12.562 22.352a1.473 1.473 0 0 1-.971-.365C10.576 21.1 9.6 20.266 8.734 19.53a53.13 53.13 0 0 1-6.238-5.855A9.351 9.351 0 0 1 0 7.551a7.853 7.853 0 0 1 1.993-5.363A6.756 6.756 0 0 1 7.019 0a6.319 6.319 0 0 1 3.947 1.363 8.076 8.076 0 0 1 1.6 1.666 8.077 8.077 0 0 1 1.6-1.666A6.319 6.319 0 0 1 18.106 0a6.756 6.756 0 0 1 5.025 2.187 7.852 7.852 0 0 1 1.993 5.363 9.35 9.35 0 0 1-2.492 6.121 53.124 53.124 0 0 1-6.232 5.855c-.865.737-1.845 1.572-2.862 2.462a1.474 1.474 0 0 1-.971.365zM7.019 1.472a5.3 5.3 0 0 0-3.944 1.713 6.388 6.388 0 0 0-1.6 4.366 7.868 7.868 0 0 0 2.153 5.182 52.283 52.283 0 0 0 6.059 5.674c.867.739 1.849 1.576 2.871 2.47 1.029-.9 2.012-1.734 2.881-2.474a52.3 52.3 0 0 0 6.061-5.67 7.869 7.869 0 0 0 2.153-5.182 6.388 6.388 0 0 0-1.6-4.366 5.3 5.3 0 0 0-3.943-1.713 4.881 4.881 0 0 0-3.047 1.055 7.141 7.141 0 0 0-1.7 1.965.929.929 0 0 1-1.6 0 7.135 7.135 0 0 0-1.7-1.965 4.881 4.881 0 0 0-3.044-1.055zm0 0"/>
</svg>
