<svg fill="none" height="80" viewBox="0 0 80 80" width="80" xmlns="http://www.w3.org/2000/svg"><g clip-rule="evenodd" fill-rule="evenodd"><path d="m40 80c22.0914 0 40-17.9086 40-40s-17.9086-40-40-40-40 17.9086-40 40 17.9086 40 40 40z" fill="#00d659"/><path d="m61.4211 24.6095c1.1359.7849 1.4205 2.342.6356 3.4779l-19.2432 27.8486c-1.2671 1.8271-3.2526 3.0354-5.484 3.2089-2.2348.1737-4.3807-.7177-5.8951-2.352l-.0049-.0053-9.9349-10.7843c-.9355-1.0155-.8707-2.5971.1448-3.5326s2.5971-.8707 3.5326.1448l9.93 10.779c.0007.0008-.0006-.0007 0 0 .5274.568 1.2034.8149 1.84.7654.6405-.0498 1.2971-.4026 1.7619-1.0718.0003-.0005-.0004.0005 0 0l19.2393-27.8431c.7849-1.1359 2.342-1.4204 3.4779-.6355z" fill="#fff"/></g></svg>