<svg width="20" height="18" viewBox="0 0 20 18" fill="none" xmlns="http://www.w3.org/2000/svg">
<path d="M10.0004 16.7485C9.79595 16.7485 9.60041 16.6651 9.45895 16.5176L2.6465 9.4124C1.19409 7.95609 0.835109 5.73388 1.75588 3.89404L10.0004 16.7485ZM10.0004 16.7485C10.2047 16.7485 10.4003 16.6651 10.5417 16.5175M10.0004 16.7485L10.5417 16.5175M10.5417 16.5175L17.355 9.41008C18.8058 7.95387 19.1644 5.73319 18.2448 3.8941L18.2447 3.89404M10.5417 16.5175L18.2447 3.89404M18.2447 3.89404C17.5569 2.51883 16.25 1.55805 14.7323 1.3118C13.2146 1.06556 11.671 1.5638 10.5837 2.65091C10.5836 2.65096 10.5836 2.651 10.5836 2.65105L10.0003 3.23392L9.41707 2.65105C9.41703 2.651 9.41698 2.65096 9.41693 2.65091C8.32962 1.5638 6.78606 1.06556 5.26835 1.3118C3.75066 1.55804 2.44381 2.51874 1.75598 3.89384L18.2447 3.89404Z" fill="white" stroke="#3FC1CB" stroke-width="1.5" stroke-linecap="round" stroke-linejoin="round"/>
</svg>
