<svg height="216.107" viewBox="0 0 164.897 216.107" width="164.897" xmlns="http://www.w3.org/2000/svg" xmlns:xlink="http://www.w3.org/1999/xlink"><linearGradient id="a" gradientUnits="objectBoundingBox" x1=".044" x2="1.005" y1=".043" y2=".995"><stop offset="0" stop-color="#d8e4f0"/><stop offset="1" stop-color="#becfe0"/></linearGradient><linearGradient id="b" gradientUnits="objectBoundingBox" x1=".055" x2=".973" y1=".054" y2=".685"><stop offset="0" stop-color="#cddbe7"/><stop offset="1" stop-color="#90a5ba"/></linearGradient><path d="m0 0v216.107h164.9v-216.107z" fill="url(#a)" opacity=".8"/><path d="m0 83.473h48.65v-83.473h-48.65z" fill="#a4b5c8" opacity=".7" transform="translate(81.936 132.635)"/><g fill="url(#b)"><path d="m0 33.286h25.6v-33.286h-25.6z" opacity=".8" transform="translate(22.021 22.021)"/><path d="m0 33.286h25.6v-33.286h-25.6z" opacity=".8" transform="translate(69.646 22.021)"/><path d="m0 33.286h25.6v-33.286h-25.6z" opacity=".8" transform="translate(117.272 22.021)"/><path d="m0 33.286h25.6v-33.286h-25.6z" opacity=".8" transform="translate(22.021 77.328)"/><path d="m0 33.286h25.6v-33.286h-25.6z" opacity=".8" transform="translate(69.646 77.328)"/><path d="m0 33.286h25.6v-33.286h-25.6z" opacity=".8" transform="translate(117.272 77.328)"/><path d="m0 33.287h25.6v-33.287h-25.6z" opacity=".8" transform="translate(22.021 132.635)"/></g></svg>