<svg height="65" viewBox="0 0 65 65" width="65" xmlns="http://www.w3.org/2000/svg"><circle cx="32.5" cy="32.5" fill="#f6f8fa" r="32.5"/><g fill="#3e454f" stroke="#3e454f" stroke-miterlimit="10" stroke-width=".1"><path d="m3.49 6.977a3.488 3.488 0 1 1 3.49-3.49 3.494 3.494 0 0 1 -3.49 3.49zm0-5.982a2.493 2.493 0 1 0 2.492 2.492 2.495 2.495 0 0 0 -2.492-2.493z" transform="translate(28.462 21.779)"/><path d="m9.562 27.291-7.662-11.059a10.876 10.876 0 0 1 .9-13.432 9.557 9.557 0 0 1 13.517 0 10.888 10.888 0 0 1 .888 13.447l-7.642 11.042zm0-26.291a8.51 8.51 0 0 0 -6.055 2.5 9.835 9.835 0 0 0 -.794 12.146l6.848 9.891 6.839-9.871a9.843 9.843 0 0 0 -.786-12.166 8.5 8.5 0 0 0 -6.052-2.5z" transform="translate(22.303 15.797)"/><path d="m20.992 0a.5.5 0 1 0 -.117.991c5.24.616 8.031 2.278 8.031 3.242 0 1.353-5.307 3.239-13.954 3.239s-13.952-1.883-13.952-3.236c0-.964 2.789-2.626 8.029-3.242a.5.5 0 1 0 -.117-.994c-5.247.622-8.912 2.362-8.912 4.236 0 2.105 5.135 4.237 14.952 4.237s14.948-2.132 14.948-4.237c0-1.874-3.66-3.614-8.908-4.236z" transform="translate(17 37.229)"/></g></svg>