<svg height="213.7" viewBox="0 0 136.692 213.7" width="136.692" xmlns="http://www.w3.org/2000/svg" xmlns:xlink="http://www.w3.org/1999/xlink"><linearGradient id="a" gradientUnits="objectBoundingBox" x1=".044" x2="1.005" y1=".043" y2=".995"><stop offset="0" stop-color="#d8e4f0"/><stop offset="1" stop-color="#becfe0"/></linearGradient><linearGradient id="b" gradientUnits="objectBoundingBox" x1=".055" x2=".973" y1=".054" y2=".685"><stop offset="0" stop-color="#cddbe7"/><stop offset="1" stop-color="#90a5ba"/></linearGradient><path d="m85.921 100.935v-48.142a33.4 33.4 0 1 0 -66.791 0v48.142h-19.13v-48.142a52.526 52.526 0 1 1 105.051 0v48.142z" fill="url(#a)" opacity=".8" transform="translate(15.855)"/><path d="m127.82 0h-118.948a8.9 8.9 0 0 0 -8.872 8.917v95.918a8.9 8.9 0 0 0 8.872 8.917h118.948a8.9 8.9 0 0 0 8.872-8.917v-95.917a8.9 8.9 0 0 0 -8.872-8.918" fill="url(#b)" opacity=".8" transform="translate(0 99.948)"/><ellipse cx="27.866" cy="28.089" fill="url(#a)" opacity=".45" rx="27.866" ry="28.089" transform="translate(38.622 128.153)"/><path d="m27.21 54.421a27.21 27.21 0 0 1 -19.24-46.451 27.21 27.21 0 0 1 38.481 38.481 27.033 27.033 0 0 1 -19.241 7.97zm-12.979-29.208-3.993 3.994 11.981 11.981 21.965-21.964-3.994-3.995-17.971 17.971-7.988-7.988z" fill="#fff" opacity=".9" transform="translate(39.479 129.052)"/></svg>