<svg height="27.531" viewBox="0 0 34.772 27.531" width="34.772" xmlns="http://www.w3.org/2000/svg" xmlns:xlink="http://www.w3.org/1999/xlink"><clipPath id="a"><path d="m0 0h34.772v27.531h-34.772z" transform="translate(.026 .017)"/></clipPath><g transform="translate(-.026 -.017)"><path d="m0 0h34.772v27.531h-34.772z" fill="none" transform="translate(.026 .017)"/><g clip-path="url(#a)"><path d="m31.311 27.548h-27.832a3.465 3.465 0 0 1 -3.479-3.448v-15.491a3.465 3.465 0 0 1 3.479-3.444h4.176a1.544 1.544 0 0 0 1.372-.98l1.08-3.2a1.54 1.54 0 0 1 1.373-.985h11.83a1.544 1.544 0 0 1 1.372.98l1.08 3.2a1.54 1.54 0 0 0 1.372.98h4.176a3.465 3.465 0 0 1 3.48 3.449v15.491a3.465 3.465 0 0 1 -3.479 3.448zm-13.911-20.661a8.609 8.609 0 1 0 8.7 8.609 8.664 8.664 0 0 0 -8.7-8.609zm12.7 1.72a1.205 1.205 0 1 0 1.219 1.2 1.212 1.212 0 0 0 -1.227-1.2zm-12.7 12.054a5.166 5.166 0 1 1 5.213-5.161 5.2 5.2 0 0 1 -5.213 5.161z" fill="#3e454f"/></g></g></svg>