<svg height="20.565" viewBox="0 0 25.973 20.565" width="25.973" xmlns="http://www.w3.org/2000/svg" xmlns:xlink="http://www.w3.org/1999/xlink"><clipPath id="a"><path d="m0 0h25.973v20.565h-25.973z"/></clipPath><g clip-path="url(#a)"><path d="m23.388 20.577h-20.788a2.589 2.589 0 0 1 -2.6-2.572v-11.575a2.589 2.589 0 0 1 2.6-2.572h3.118a1.154 1.154 0 0 0 1.025-.732l.807-2.394a1.151 1.151 0 0 1 1.025-.732h8.837a1.154 1.154 0 0 1 1.025.732l.807 2.394a1.151 1.151 0 0 0 1.025.732h3.119a2.588 2.588 0 0 1 2.6 2.572v11.575a2.588 2.588 0 0 1 -2.6 2.572zm-10.394-15.433a6.431 6.431 0 1 0 6.5 6.431 6.471 6.471 0 0 0 -6.5-6.431zm9.484 1.285a.9.9 0 1 0 .91.9.906.906 0 0 0 -.91-.9zm-9.484 9a3.859 3.859 0 1 1 3.9-3.858 3.883 3.883 0 0 1 -3.9 3.862z" fill="#324688" transform="translate(-.019 -.013)"/></g></svg>